<svg xmlns="http://www.w3.org/2000/svg" version="1.1" xmlns:xlink="http://www.w3.org/1999/xlink" xmlns:svgjs="http://svgjs.com/svgjs" width="1440" height="666" preserveAspectRatio="none" viewBox="0 0 1440 666"><g mask="url(&quot;#SvgjsMask3068&quot;)" fill="none"><rect width="1440" height="666" x="0" y="0" fill="rgba(4, 29, 76, 0.98)"></rect><use xlink:href="#SvgjsG3073" transform="translate(0, 0)" fill="rgba(26, 107, 66, 1)"></use><use xlink:href="#SvgjsG3073" transform="translate(960, 0)" fill="rgba(26, 107, 66, 1)"></use></g><defs><mask id="SvgjsMask3068"><rect width="1440" height="666" fill="#ffffff"></rect></mask><g id="SvgjsG3069"><path d="M13.165 5.485L5.295 15.96l1.814-7.368-4.222 0.071L9.733 0 7.677 5.489l5.488-0.004z" fill-rule="evenodd"></path></g><g id="SvgjsG3070"><path d="M13.891 2.875V7.063c0 1.026-0.306 1.976-0.844 2.77a2.164 2.164 0 0 1 0.298 0.498A1.58 1.58 0 0 1 13.061 12.04L10.92 14.261c-0.036 0.048-0.089 0.093-0.151 0.119a0.351 0.351 0 0 1-0.465-0.182 0.346 0.346 0 0 1-0.018-0.239l0.448-2.265a5.023 5.023 0 0 1-1.815 0.338l-4.809-0.005c1.288 0.879 1.288 2.589 1.283 2.62-0.009 0.12-0.022 0.208-0.057 0.315-0.049 0.138-0.138 0.289-0.342 0.226l-2.924-2.299C0.729 11.929-0.417 10.34 0.147 8.706c0.391-1.115 1.501-1.581 2.584-1.772l6.095-1.226L11.48 0.935c0.325-0.564 1.177-0.972 1.745-0.932 0.573 0.04 0.986 0.195 1.39 0.546l1.314 0.28c0.138 0.009 0.24 0.124 0.231 0.262l-0.146 0.532c-0.049 0.12-0.102 0.208-0.213 0.285l-1.91 0.968z"></path></g><g id="SvgjsG3071"><path d="M3.898 0s0.232 4.58 4.246 4.192S8.597 0.364 3.898 0m4.203 14.894a2.324 2.324 0 0 1-1.902 0.977c-0.64 0-1.267-0.3-1.689-0.721-0.864-0.943-1.985-3.051-1.986-3.052C1.897 10.822 1.56 9.837 1.56 8.839c0-2.126 1.72-3.968 3.848-3.968 1.05 0 1.996 0.42 2.692 1.099a3.835 3.835 0 0 1 2.69-1.099c2.129 0 3.848 1.842 3.849 3.967 0 0.997-0.334 1.983-0.964 3.259 0 0-1.12 2.108-1.984 3.051-0.423 0.422-1.049 0.722-1.689 0.722a2.321 2.321 0 0 1-1.899-0.977" fill-rule="evenodd"></path></g><g id="SvgjsG3072"><path d="M11.986 8.245a46.749 46.749 0 0 1-0.521-0.411c-0.146-0.116-0.293-0.233-0.44-0.348-0.88-0.688-1.797-1.316-2.816-1.407A2.815 2.815 0 0 0 7.954 6.067c-0.086 0-0.171 0.011-0.255 0.018-1.022 0.093-1.942 0.717-2.826 1.408l0.093 0.073c0.108 0.085 0.213 0.168 0.32 0.252C6.165 7.137 7.021 6.576 7.954 6.576c0.93 0 1.784 0.558 2.66 1.236a35.098 35.098 0 0 1 0.535 0.421c0.142 0.113 0.283 0.226 0.426 0.338C12.532 9.32 13.531 10 14.658 10c0.437 0 0.854-0.104 1.257-0.273v-0.557c-0.409 0.197-0.825 0.32-1.257 0.32-0.934 0-1.792-0.563-2.672-1.245z"></path><path d="M11.574 7.496c0.029 0.023 0.059 0.046 0.088 0.07 0.109 0.087 0.216 0.17 0.325 0.256 0.318-0.246 0.635-0.476 0.952-0.67v1.37c0.17 0.111 0.34 0.214 0.51 0.301V6.878c0.315-0.147 0.634-0.248 0.96-0.283v2.537c0.078 0.01 0.157 0.018 0.237 0.018 0.091 0 0.183-0.009 0.273-0.021V6.592c0.34 0.037 0.67 0.144 0.996 0.3V6.336C15.514 6.17 15.099 6.067 14.664 6.067c-1.128 0-2.13 0.68-3.09 1.429z m-7.248 1.08c-0.034-0.027-0.068-0.053-0.102-0.08-0.104-0.083-0.207-0.162-0.31-0.245-0.877 0.678-1.733 1.238-2.665 1.238C0.82 9.49 0.407 9.36 0 9.152v0.562C0.401 9.891 0.815 10 1.249 10c1.124 0 2.122-0.677 3.077-1.423z"></path><path d="M0.989 9.133c0.084 0.011 0.17 0.019 0.254 0.02 0.086 0 0.171-0.008 0.256-0.02V6.592c0.329 0.035 0.65 0.136 0.967 0.285-0.002 0.012-0.007 0.023-0.007 0.036v1.903a5.818 5.818 0 0 0 0.51-0.303V7.152c0.487 0.3 0.971 0.684 1.467 1.08C5.525 9.101 6.652 10 7.948 10c1.123 0 2.121-0.675 3.078-1.42l-0.106-0.084c-0.103-0.082-0.205-0.161-0.306-0.242-0.313 0.242-0.622 0.466-0.934 0.658V7.564A5.816 5.816 0 0 0 9.17 7.261v1.893c0 0.01 0.004 0.019 0.005 0.029-0.316 0.149-0.637 0.252-0.965 0.288V6.937a1.97 1.97 0 0 0-0.267-0.02c-0.082 0-0.163 0.008-0.243 0.017v2.541c-0.33-0.035-0.652-0.136-0.969-0.283 0.002-0.013 0.006-0.024 0.006-0.039V7.248a5.629 5.629 0 0 0-0.51 0.302v1.368c-0.49-0.299-0.976-0.686-1.474-1.083C3.666 6.966 2.539 6.067 1.243 6.067c-0.432 0-0.844 0.096-1.243 0.251v0.55c0.324-0.144 0.652-0.244 0.989-0.278V9.133z"></path></g><g id="SvgjsG3073"><use xlink:href="#SvgjsG3069" transform="translate(0, 0) scale(1.5)" fill="rgba(46, 12, 126, 1)"></use><use xlink:href="#SvgjsG3070" transform="translate(0, 96) scale(1.5)" fill="rgba(46, 12, 126, 1)"></use><use xlink:href="#SvgjsG3071" transform="translate(0, 192) scale(1.5)" fill="rgba(26, 107, 66, 1)"></use><use xlink:href="#SvgjsG3072" transform="translate(0, 288) scale(1.5)" fill="rgba(46, 12, 126, 1)"></use><use xlink:href="#SvgjsG3069" transform="translate(0, 384) scale(1.5)" fill="rgba(46, 12, 126, 1)"></use><use xlink:href="#SvgjsG3070" transform="translate(0, 480) scale(1.5)" fill="rgba(46, 12, 126, 1)"></use><use xlink:href="#SvgjsG3071" transform="translate(0, 576) scale(1.5)" fill="rgba(26, 107, 66, 1)"></use><use xlink:href="#SvgjsG3070" transform="translate(96, 0) scale(1.5)" fill="rgba(46, 12, 126, 1)"></use><use xlink:href="#SvgjsG3071" transform="translate(96, 96) scale(1.5)" fill="rgba(26, 107, 66, 1)"></use><use xlink:href="#SvgjsG3072" transform="translate(96, 192) scale(1.5)" fill="rgba(46, 12, 126, 1)"></use><use xlink:href="#SvgjsG3069" transform="translate(96, 288) scale(1.5)" fill="rgba(26, 107, 66, 1)"></use><use xlink:href="#SvgjsG3070" transform="translate(96, 384) scale(1.5)" fill="rgba(46, 12, 126, 1)"></use><use xlink:href="#SvgjsG3071" transform="translate(96, 480) scale(1.5)" fill="rgba(26, 107, 66, 1)"></use><use xlink:href="#SvgjsG3072" transform="translate(96, 576) scale(1.5)" fill="rgba(26, 107, 66, 1)"></use><use xlink:href="#SvgjsG3071" transform="translate(192, 0) scale(1.5)" fill="rgba(46, 12, 126, 1)"></use><use xlink:href="#SvgjsG3072" transform="translate(192, 96) scale(1.5)" fill="rgba(26, 107, 66, 1)"></use><use xlink:href="#SvgjsG3069" transform="translate(192, 192) scale(1.5)" fill="rgba(26, 107, 66, 1)"></use><use xlink:href="#SvgjsG3070" transform="translate(192, 288) scale(1.5)" fill="rgba(26, 107, 66, 1)"></use><use xlink:href="#SvgjsG3071" transform="translate(192, 384) scale(1.5)" fill="rgba(46, 12, 126, 1)"></use><use xlink:href="#SvgjsG3072" transform="translate(192, 480) scale(1.5)" fill="rgba(46, 12, 126, 1)"></use><use xlink:href="#SvgjsG3069" transform="translate(192, 576) scale(1.5)" fill="rgba(46, 12, 126, 1)"></use><use xlink:href="#SvgjsG3072" transform="translate(288, 0) scale(1.5)" fill="rgba(26, 107, 66, 1)"></use><use xlink:href="#SvgjsG3069" transform="translate(288, 96) scale(1.5)" fill="rgba(26, 107, 66, 1)"></use><use xlink:href="#SvgjsG3070" transform="translate(288, 192) scale(1.5)" fill="rgba(46, 12, 126, 1)"></use><use xlink:href="#SvgjsG3071" transform="translate(288, 288) scale(1.5)" fill="rgba(26, 107, 66, 1)"></use><use xlink:href="#SvgjsG3072" transform="translate(288, 384) scale(1.5)" fill="rgba(46, 12, 126, 1)"></use><use xlink:href="#SvgjsG3069" transform="translate(288, 480) scale(1.5)" fill="rgba(26, 107, 66, 1)"></use><use xlink:href="#SvgjsG3070" transform="translate(288, 576) scale(1.5)" fill="rgba(26, 107, 66, 1)"></use><use xlink:href="#SvgjsG3069" transform="translate(384, 0) scale(1.5)" fill="rgba(26, 107, 66, 1)"></use><use xlink:href="#SvgjsG3070" transform="translate(384, 96) scale(1.5)" fill="rgba(46, 12, 126, 1)"></use><use xlink:href="#SvgjsG3071" transform="translate(384, 192) scale(1.5)" fill="rgba(26, 107, 66, 1)"></use><use xlink:href="#SvgjsG3072" transform="translate(384, 288) scale(1.5)" fill="rgba(26, 107, 66, 1)"></use><use xlink:href="#SvgjsG3069" transform="translate(384, 384) scale(1.5)" fill="rgba(26, 107, 66, 1)"></use><use xlink:href="#SvgjsG3070" transform="translate(384, 480) scale(1.5)" fill="rgba(46, 12, 126, 1)"></use><use xlink:href="#SvgjsG3071" transform="translate(384, 576) scale(1.5)" fill="rgba(46, 12, 126, 1)"></use><use xlink:href="#SvgjsG3070" transform="translate(480, 0) scale(1.5)" fill="rgba(26, 107, 66, 1)"></use><use xlink:href="#SvgjsG3071" transform="translate(480, 96) scale(1.5)" fill="rgba(26, 107, 66, 1)"></use><use xlink:href="#SvgjsG3072" transform="translate(480, 192) scale(1.5)" fill="rgba(26, 107, 66, 1)"></use><use xlink:href="#SvgjsG3069" transform="translate(480, 288) scale(1.5)" fill="rgba(46, 12, 126, 1)"></use><use xlink:href="#SvgjsG3070" transform="translate(480, 384) scale(1.5)" fill="rgba(46, 12, 126, 1)"></use><use xlink:href="#SvgjsG3071" transform="translate(480, 480) scale(1.5)" fill="rgba(26, 107, 66, 1)"></use><use xlink:href="#SvgjsG3072" transform="translate(480, 576) scale(1.5)" fill="rgba(46, 12, 126, 1)"></use><use xlink:href="#SvgjsG3071" transform="translate(576, 0) scale(1.5)" fill="rgba(46, 12, 126, 1)"></use><use xlink:href="#SvgjsG3072" transform="translate(576, 96) scale(1.5)" fill="rgba(46, 12, 126, 1)"></use><use xlink:href="#SvgjsG3069" transform="translate(576, 192) scale(1.5)" fill="rgba(26, 107, 66, 1)"></use><use xlink:href="#SvgjsG3070" transform="translate(576, 288) scale(1.5)" fill="rgba(46, 12, 126, 1)"></use><use xlink:href="#SvgjsG3071" transform="translate(576, 384) scale(1.5)" fill="rgba(26, 107, 66, 1)"></use><use xlink:href="#SvgjsG3072" transform="translate(576, 480) scale(1.5)" fill="rgba(46, 12, 126, 1)"></use><use xlink:href="#SvgjsG3069" transform="translate(576, 576) scale(1.5)" fill="rgba(46, 12, 126, 1)"></use><use xlink:href="#SvgjsG3072" transform="translate(672, 0) scale(1.5)" fill="rgba(46, 12, 126, 1)"></use><use xlink:href="#SvgjsG3069" transform="translate(672, 96) scale(1.5)" fill="rgba(46, 12, 126, 1)"></use><use xlink:href="#SvgjsG3070" transform="translate(672, 192) scale(1.5)" fill="rgba(46, 12, 126, 1)"></use><use xlink:href="#SvgjsG3071" transform="translate(672, 288) scale(1.5)" fill="rgba(26, 107, 66, 1)"></use><use xlink:href="#SvgjsG3072" transform="translate(672, 384) scale(1.5)" fill="rgba(26, 107, 66, 1)"></use><use xlink:href="#SvgjsG3069" transform="translate(672, 480) scale(1.5)" fill="rgba(46, 12, 126, 1)"></use><use xlink:href="#SvgjsG3070" transform="translate(672, 576) scale(1.5)" fill="rgba(26, 107, 66, 1)"></use><use xlink:href="#SvgjsG3069" transform="translate(768, 0) scale(1.5)" fill="rgba(26, 107, 66, 1)"></use><use xlink:href="#SvgjsG3070" transform="translate(768, 96) scale(1.5)" fill="rgba(26, 107, 66, 1)"></use><use xlink:href="#SvgjsG3071" transform="translate(768, 192) scale(1.5)" fill="rgba(26, 107, 66, 1)"></use><use xlink:href="#SvgjsG3072" transform="translate(768, 288) scale(1.5)" fill="rgba(46, 12, 126, 1)"></use><use xlink:href="#SvgjsG3069" transform="translate(768, 384) scale(1.5)" fill="rgba(46, 12, 126, 1)"></use><use xlink:href="#SvgjsG3070" transform="translate(768, 480) scale(1.5)" fill="rgba(26, 107, 66, 1)"></use><use xlink:href="#SvgjsG3071" transform="translate(768, 576) scale(1.5)" fill="rgba(26, 107, 66, 1)"></use><use xlink:href="#SvgjsG3070" transform="translate(864, 0) scale(1.5)" fill="rgba(46, 12, 126, 1)"></use><use xlink:href="#SvgjsG3071" transform="translate(864, 96) scale(1.5)" fill="rgba(46, 12, 126, 1)"></use><use xlink:href="#SvgjsG3072" transform="translate(864, 192) scale(1.5)" fill="rgba(26, 107, 66, 1)"></use><use xlink:href="#SvgjsG3069" transform="translate(864, 288) scale(1.5)" fill="rgba(26, 107, 66, 1)"></use><use xlink:href="#SvgjsG3070" transform="translate(864, 384) scale(1.5)" fill="rgba(46, 12, 126, 1)"></use><use xlink:href="#SvgjsG3071" transform="translate(864, 480) scale(1.5)" fill="rgba(26, 107, 66, 1)"></use><use xlink:href="#SvgjsG3072" transform="translate(864, 576) scale(1.5)" fill="rgba(46, 12, 126, 1)"></use></g></defs></svg>