<svg xmlns="http://www.w3.org/2000/svg" version="1.1" xmlns:xlink="http://www.w3.org/1999/xlink" xmlns:svgjs="http://svgjs.com/svgjs" width="1440" height="860" preserveAspectRatio="none" viewBox="0 0 1440 860"><g mask="url(&quot;#SvgjsMask1300&quot;)" fill="none"><rect width="1440" height="860" x="0" y="0" fill="url(#SvgjsLinearGradient1301)"></rect><path d="M1488 860L0 860 L0 568.61Q4.98 453.59, 120 458.57Q143.91 410.48, 192 434.39Q264 434.39, 264 506.4Q338.25 460.64, 384 534.89Q412.09 442.98, 504 471.07Q546.13 393.19, 624 435.32Q668.72 408.04, 696 452.76Q752.08 436.84, 768 492.92Q802.55 407.47, 888 442.02Q953.93 387.95, 1008 453.88Q1069.86 443.74, 1080 505.59Q1148.53 502.12, 1152 570.64Q1170.91 517.55, 1224 536.45Q1252.88 445.33, 1344 474.2Q1388.2 446.4, 1416 490.6Q1462.4 465, 1488 511.41z" fill="#182f5d"></path><path d="M1536 860L0 860 L0 591.15Q34.64 505.79, 120 540.43Q189.98 490.41, 240 560.39Q284.28 532.67, 312 576.96Q331.15 524.11, 384 543.26Q455.1 494.36, 504 565.45Q597.75 587.21, 576 680.96Q566.17 599.13, 648 589.31Q690.58 511.88, 768 554.46Q815.88 530.34, 840 578.21Q914.81 581.02, 912 655.82Q986.62 610.44, 1032 685.06Q1064.13 597.18, 1152 629.31Q1151.19 556.5, 1224 555.7Q1252.97 512.67, 1296 541.65Q1399.63 525.28, 1416 628.92Q1481.78 574.69, 1536 640.47z" fill="#25467d"></path><path d="M1488 860L0 860 L0 699.65Q57.26 636.91, 120 694.18Q189.26 643.44, 240 712.7Q309.66 710.36, 312 780.02Q330.69 726.71, 384 745.41Q422.75 664.15, 504 702.9Q529.33 656.23, 576 681.56Q603.2 636.76, 648 663.96Q700.98 644.94, 720 697.93Q769.17 627.1, 840 676.26Q903.07 667.33, 912 730.39Q928.79 675.18, 984 691.97Q1002.93 638.9, 1056 657.83Q1126.91 608.75, 1176 679.66Q1255.24 686.9, 1248 766.15Q1319.97 718.13, 1368 790.1Q1370 672.1, 1488 674.09z" fill="#356cb1"></path><path d="M1560 860L0 860 L0 754.16Q36.65 718.81, 72 755.45Q187.34 750.79, 192 866.13Q215.11 817.24, 264 840.34Q315.3 771.64, 384 822.95Q479.08 798.03, 504 893.1Q521.32 790.42, 624 807.74Q665.57 729.31, 744 770.88Q792.73 747.61, 816 796.33Q906.14 766.48, 936 856.62Q976.23 776.85, 1056 817.07Q1098.64 739.72, 1176 782.36Q1245.92 732.28, 1296 802.2Q1314.8 749, 1368 767.79Q1409.58 737.37, 1440 778.95Q1526.4 745.35, 1560 831.75z" fill="rgba(181, 188, 179, 1)"></path></g><defs><mask id="SvgjsMask1300"><rect width="1440" height="860" fill="#ffffff"></rect></mask><linearGradient x1="0%" y1="50%" x2="100%" y2="50%" gradientUnits="userSpaceOnUse" id="SvgjsLinearGradient1301"><stop stop-color="#0e2a47" offset="0"></stop><stop stop-color="rgba(129, 130, 76, 1)" offset="1"></stop></linearGradient></defs></svg>